<?xml version="1.0" encoding="iso-8859-1"?>
<!-- Generator: Adobe Illustrator 19.0.0, SVG Export Plug-In . SVG Version: 6.00 Build 0)  -->
<svg version="1.1" id="Layer_1" xmlns="http://www.w3.org/2000/svg" xmlns:xlink="http://www.w3.org/1999/xlink" x="0px" y="0px"
	 viewBox="0 0 318.188 318.188" style="enable-background:new 0 0 318.188 318.188;" xml:space="preserve">
<g>
	<polygon style="fill:#E8E8E8;" points="227.321,7.5 40.342,7.5 40.342,310.688 277.846,310.688 277.846,58.025 	"/>
	<g>
		<g>
			<path style="fill:#004A94;" d="M158.348,74.91c-15.19,0-25.222,6.307-25.222,12.325v19.196h25.222v2.866h-47.284
				c-6.02,0-12.324,10.031-12.324,25.222s6.305,25.222,12.324,25.222h19.193v-11.996c0-8.086,6.578-14.665,14.665-14.665
				l26.848-0.002c6.505,0,11.798-5.293,11.798-11.799v-20.738h0.002V87.235C183.569,81.217,173.538,74.91,158.348,74.91z"/>
			<circle style="fill:#FFFFFF;" cx="144.679" cy="91.909" r="3.63"/>
		</g>
		<g>
			<path style="fill:#FB9200;" d="M205.632,109.298h-19.198v11.981c0,8.086-6.578,14.664-14.664,14.664l-26.849,0.003
				c-6.505,0-11.797,5.293-11.797,11.799v13.234l0.002-0.003v20.827c0,6.019,10.031,12.325,25.222,12.325
				s25.222-6.307,25.222-12.325v-19.196h-25.222v-2.866h47.284c6.02,0,12.324-10.031,12.324-25.222S211.651,109.298,205.632,109.298
				z"/>
			<circle style="fill:#FFFFFF;" cx="172.017" cy="177.13" r="3.63"/>
		</g>
	</g>
	<polygon style="fill:#004A94;" points="235.14,32.763 40.342,32.763 40.342,7.5 227.321,7.5 	"/>
	<polygon style="fill:#D1D3D3;" points="227.321,58.025 277.846,58.025 227.321,7.5 	"/>
	<path style="fill:#333E48;" d="M283.149,52.723L232.625,2.197C231.218,0.79,229.311,0,227.321,0H40.342c-4.143,0-7.5,3.358-7.5,7.5
		v303.188c0,4.143,3.357,7.5,7.5,7.5h237.504c4.143,0,7.5-3.357,7.5-7.5V58.025C285.346,56.036,284.556,54.129,283.149,52.723z
		 M234.821,25.606l24.918,24.919h-24.918L234.821,25.606L234.821,25.606z M47.842,15h171.979v10.263H47.842V15z M270.346,303.188
		H47.842V40.263h171.979v17.763c0,4.143,3.357,7.5,7.5,7.5h43.024v237.662H270.346z M179.581,251.179l-8.205-17.787h-14.111
		l15.785,29.634v18.346h13.062v-18.738l15.785-29.241h-14.046L179.581,251.179z M150.242,237.363
		c-3.042-2.647-7.593-3.972-13.652-3.972h-16.606v47.979h12.963v-15.916h3.644c5.819,0,10.31-1.461,13.472-4.382
		c3.161-2.921,4.742-7.061,4.742-12.421C154.804,243.773,153.282,240.01,150.242,237.363z M139.954,253.246
		c-1.149,1.095-2.697,1.641-4.645,1.641h-2.363v-11.025h3.348c3.588,0,5.383,1.619,5.383,4.856
		C141.677,250.643,141.103,252.152,139.954,253.246z"/>
</g>
<g>
</g>
<g>
</g>
<g>
</g>
<g>
</g>
<g>
</g>
<g>
</g>
<g>
</g>
<g>
</g>
<g>
</g>
<g>
</g>
<g>
</g>
<g>
</g>
<g>
</g>
<g>
</g>
<g>
</g>
</svg>
